<svg width="57" height="89" viewBox="0 0 57 89" fill="none" xmlns="http://www.w3.org/2000/svg">
<path d="M0 17.451C0 7.81307 7.81307 0 17.451 0L56.7157 0L56.7157 89H17.451C7.81307 89 0 81.1869 0 71.549L0 17.451Z" fill="white"/>
<path d="M35.046 56.9509C35.2218 56.7474 35.3203 56.4742 35.3203 56.1897C35.3203 55.9051 35.2218 55.6319 35.046 55.4284L25.2201 44.0349L35.0459 32.6436C35.2218 32.4401 35.3203 32.1669 35.3203 31.8824C35.3203 31.5979 35.2218 31.3247 35.0459 31.1211C34.9605 31.0219 34.8583 30.943 34.7454 30.8892C34.6325 30.8353 34.5112 30.8076 34.3886 30.8076C34.2661 30.8076 34.1448 30.8353 34.0319 30.8892C33.919 30.943 33.8168 31.0219 33.7313 31.1211L23.2823 43.2395C23.0988 43.4523 22.9961 43.7377 22.9961 44.0349C22.9961 44.3321 23.0988 44.6175 23.2823 44.8303L33.7313 56.9486C33.8168 57.0479 33.919 57.1267 34.0319 57.1806C34.1448 57.2345 34.2661 57.2622 34.3886 57.2622C34.5112 57.2622 34.6325 57.2345 34.7454 57.1806C34.8583 57.1267 34.9605 57.0479 35.046 56.9486L35.046 56.9509Z" fill="#645242"/>
</svg>
