<svg width="42" height="42" viewBox="0 0 42 42" fill="none" xmlns="http://www.w3.org/2000/svg">
<path d="M21 3.9375C11.592 3.9375 3.9375 11.592 3.9375 21C3.9375 30.408 11.592 38.0625 21 38.0625C30.408 38.0625 38.0625 30.408 38.0625 21C38.0625 11.592 30.408 3.9375 21 3.9375ZM21 6.5625C28.9603 6.5625 35.4375 13.0397 35.4375 21C35.4375 28.9603 28.9603 35.4375 21 35.4375C13.0397 35.4375 6.5625 28.9603 6.5625 21C6.5625 13.0397 13.0397 6.5625 21 6.5625ZM14.4375 15.75C11.6891 15.75 9.69937 17.3342 9.69937 17.3342L11.3006 19.4158C11.3006 19.4158 12.7208 18.375 14.4388 18.375C16.1569 18.375 17.5757 19.4158 17.5757 19.4158L19.1769 17.3342C19.173 17.3342 17.1846 15.75 14.4375 15.75ZM27.5625 15.75C24.8141 15.75 22.8244 17.3342 22.8244 17.3342L24.4256 19.4158C24.4256 19.4158 25.8457 18.375 27.5638 18.375C29.2819 18.375 30.7007 19.4158 30.7007 19.4158L32.3019 17.3342C32.298 17.3342 30.3096 15.75 27.5625 15.75ZM14.1881 24.9375L11.9306 26.25C12.8421 27.8171 14.1387 29.1254 15.6975 30.051C16.0873 30.282 16.4903 30.4881 16.9089 30.6679C17.7607 31.0309 18.6572 31.2781 19.5746 31.4029C20.5204 31.5327 21.4796 31.5327 22.4254 31.4029C24.7024 31.0878 26.8118 30.0299 28.4261 28.3933C29.0623 27.7513 29.6145 27.0311 30.0694 26.25L27.8119 24.9375C26.9404 26.4487 25.5915 27.6275 23.9772 28.2887C22.3629 28.9499 20.5746 29.0559 18.8934 28.5902C18.2326 28.4072 17.5988 28.1375 17.0087 27.7883C15.8395 27.0962 14.8671 26.1143 14.1881 24.9375Z" fill="#645242"/>
</svg>
