<svg width="57" height="89" viewBox="0 0 57 89" fill="none" xmlns="http://www.w3.org/2000/svg">
<path d="M56.7157 71.549C56.7157 81.1869 48.9026 89 39.2647 89L0 89L7.78063e-06 0L39.2647 3.43263e-06C48.9026 4.2752e-06 56.7157 7.81308 56.7157 17.451L56.7157 71.549Z" fill="white"/>
<path d="M21.6697 32.0491C21.4938 32.2526 21.3954 32.5258 21.3954 32.8103C21.3954 33.0949 21.4938 33.3681 21.6697 33.5716L31.4956 44.9651L21.6697 56.3564C21.4938 56.5599 21.3954 56.8331 21.3954 57.1176C21.3954 57.4021 21.4938 57.6753 21.6697 57.8789C21.7552 57.9781 21.8574 58.057 21.9703 58.1108C22.0832 58.1647 22.2045 58.1924 22.3271 58.1924C22.4496 58.1924 22.5709 58.1647 22.6838 58.1108C22.7967 58.057 22.8989 57.9781 22.9844 57.8789L33.4333 45.7606C33.6169 45.5477 33.7196 45.2623 33.7196 44.9651C33.7196 44.6679 33.6169 44.3825 33.4333 44.1697L22.9844 32.0514C22.8989 31.9521 22.7967 31.8733 22.6838 31.8194C22.5709 31.7655 22.4496 31.7378 22.3271 31.7378C22.2045 31.7378 22.0832 31.7655 21.9703 31.8194C21.8574 31.8733 21.7552 31.9521 21.6697 32.0514L21.6697 32.0491Z" fill="#645242"/>
</svg>
