<svg width="32" height="32" viewBox="0 0 32 32" fill="none" xmlns="http://www.w3.org/2000/svg">
<g clip-path="url(#clip0_643_3042)">
<path d="M13.0117 16.0127C13.0117 16.8083 13.3278 17.5714 13.8904 18.134C14.453 18.6966 15.2161 19.0127 16.0117 19.0127C16.8074 19.0127 17.5704 18.6966 18.133 18.134C18.6956 17.5714 19.0117 16.8083 19.0117 16.0127C19.0117 15.217 18.6956 14.454 18.133 13.8914C17.5704 13.3288 16.8074 13.0127 16.0117 13.0127C15.2161 13.0127 14.453 13.3288 13.8904 13.8914C13.3278 14.454 13.0117 15.217 13.0117 16.0127Z" stroke="#645242" stroke-width="2" stroke-linecap="round" stroke-linejoin="round"/>
<path d="M1.87108 30.155C3.18308 31.4683 5.93241 31.2376 9.51241 29.5136C13.0924 27.7896 17.2124 24.7136 20.9631 20.963C24.7137 17.2123 27.7897 13.0936 29.5124 9.51364C31.2364 5.93231 31.4671 3.18431 30.1551 1.87097C28.8417 0.558974 26.0937 0.789641 22.5124 2.51364C18.9324 4.23764 14.8137 7.31364 11.0631 11.063C7.31241 14.8136 4.23641 18.9323 2.51241 22.5136C0.788415 26.095 0.557748 28.843 1.87108 30.155Z" stroke="#645242" stroke-width="2" stroke-linecap="round" stroke-linejoin="round"/>
<path d="M11.0632 20.9628C12.8691 22.7783 14.8035 24.4613 16.8512 25.9988C18.8165 27.4655 20.7405 28.6602 22.5125 29.5135C24.2845 30.3668 25.8725 30.8628 27.1845 30.9735C28.4952 31.0828 29.5045 30.8055 30.1552 30.1548C30.8045 29.5055 31.0832 28.4962 30.9725 27.1842C30.8632 25.8735 30.3659 24.2855 29.5125 22.5135C28.6592 20.7415 27.4645 18.8162 25.9979 16.8522C24.4608 14.804 22.7782 12.8692 20.9632 11.0628C19.1568 9.2478 17.222 7.56523 15.1739 6.02817C13.2099 4.5615 11.2859 3.36683 9.51252 2.5135C7.73919 1.66017 6.15252 1.16283 4.84185 1.0535C3.53119 0.944168 2.52185 1.2215 1.87119 1.87083C1.22052 2.5215 0.943188 3.53083 1.05252 4.8415C1.16319 6.1535 1.65919 7.74017 2.51252 9.5135C3.36585 11.2868 4.56052 13.2095 6.02852 15.1735C7.56563 17.2212 9.24821 19.1555 11.0632 20.9615" stroke="#645242" stroke-width="2" stroke-linecap="round" stroke-linejoin="round"/>
</g>
<defs>
<clipPath id="clip0_643_3042">
<rect width="32" height="32" fill="white"/>
</clipPath>
</defs>
</svg>
