<svg width="40" height="40" viewBox="0 0 40 40" fill="none" xmlns="http://www.w3.org/2000/svg">
<path fill-rule="evenodd" clip-rule="evenodd" d="M9.79048 6.04036C7.91132 7.34036 6.75132 9.54536 6.67132 11.8445C6.45715 18.3429 12.7755 23.4779 17.8672 27.6145C18.6122 28.2204 19.3313 28.8045 19.9996 29.3687C20.5996 28.8704 21.2413 28.3537 21.9046 27.8187C27.0488 23.6704 33.5605 18.4187 33.3271 11.8445C33.2471 9.54453 32.0871 7.34036 30.208 6.04203C27.2171 3.96036 23.6288 5.05453 21.1796 7.14119C20.7471 7.50869 20.3513 7.90786 19.9996 8.32536C19.6471 7.90786 19.2505 7.50869 18.8188 7.14203C16.3688 5.05786 12.7813 3.97203 9.79048 6.04203M19.1655 22.042V26.5229L18.843 26.2604C16.693 24.5129 14.4305 22.6729 12.498 20.6062C9.89382 17.8195 8.23715 14.9612 8.33715 11.902C8.40048 10.1054 9.31215 8.39869 10.7372 7.41369H10.7388C12.0138 6.53036 13.4422 6.41369 14.8713 6.82703C16.3355 7.25203 17.7372 8.22703 18.7238 9.39953L19.9996 10.9129L21.2746 9.39786C22.2638 8.22286 23.6655 7.24536 25.1296 6.82036C26.5571 6.40536 27.983 6.52203 29.2572 7.40869L29.2613 7.41203C30.6871 8.39703 31.5996 10.1037 31.6613 11.902V11.9037C31.7696 14.9487 30.1196 17.8204 27.5147 20.6162C25.5147 22.7637 23.1463 24.6745 20.9213 26.4687L20.833 26.5404V23.5979C21.0613 23.5729 21.3663 23.532 21.698 23.4729C22.0675 23.4086 22.4322 23.3195 22.7896 23.2062C23.1355 23.0929 23.5338 22.9262 23.843 22.667C24.1513 22.4079 24.3846 22.0454 24.5563 21.7254C24.7363 21.3904 24.888 21.0254 25.008 20.697C25.2338 20.0845 25.3721 19.5462 25.393 19.4654C25.4263 19.3375 25.4288 19.2035 25.4001 19.0745C25.3715 18.9454 25.3126 18.8251 25.2282 18.7233C25.1439 18.6215 25.0366 18.5413 24.9151 18.4892C24.7936 18.4371 24.6615 18.4147 24.5296 18.4237H24.5263L24.5196 18.4245L24.4971 18.4262L24.418 18.4329C24.3513 18.4387 24.2555 18.447 24.1396 18.4604C23.908 18.4854 23.5896 18.527 23.243 18.5887C22.8732 18.6529 22.5082 18.742 22.1505 18.8554C21.8046 18.9687 21.4071 19.1354 21.098 19.3954C21.0024 19.4759 20.9141 19.5642 20.833 19.6604V17.7645C21.0613 17.7395 21.3663 17.6987 21.698 17.6395C22.0675 17.5753 22.4322 17.4862 22.7896 17.3729C23.1355 17.2595 23.5338 17.0929 23.843 16.8337C24.1513 16.5745 24.3846 16.212 24.5563 15.892C24.7363 15.557 24.888 15.192 25.008 14.8637C25.2338 14.2512 25.3721 13.7129 25.393 13.632C25.4263 13.5041 25.4288 13.3701 25.4001 13.2411C25.3715 13.1121 25.3126 12.9917 25.2282 12.89C25.1439 12.7882 25.0366 12.708 24.9151 12.6559C24.7936 12.6038 24.6615 12.5813 24.5296 12.5904H24.5263L24.5196 12.5912L24.4971 12.5929L24.418 12.5995C24.3513 12.6054 24.2555 12.6137 24.1396 12.627C23.908 12.652 23.5896 12.6937 23.243 12.7554C22.8732 12.8195 22.5082 12.9086 22.1505 13.022C21.8046 13.1354 21.4071 13.302 21.098 13.5612C20.7888 13.8204 20.5563 14.1829 20.3846 14.5029C20.3113 14.6395 20.2427 14.7795 20.1788 14.9229C20.0865 14.5951 19.9817 14.271 19.8646 13.9512C19.7374 13.5989 19.5865 13.2557 19.413 12.9237C19.2413 12.6037 19.008 12.242 18.6997 11.9829C18.3913 11.7245 17.993 11.557 17.6472 11.4429C17.2897 11.3295 16.925 11.2404 16.5555 11.1762C16.1397 11.1024 15.7206 11.0485 15.2997 11.0145L15.278 11.0129H15.268C15.1361 11.0038 15.004 11.0263 14.8825 11.0784C14.7611 11.1305 14.6537 11.2107 14.5694 11.3125C14.4851 11.4142 14.4261 11.5346 14.3975 11.6636C14.3688 11.7926 14.3713 11.9266 14.4046 12.0545C14.4255 12.1345 14.563 12.6729 14.7896 13.2854C14.9096 13.6129 15.0613 13.9787 15.2413 14.3137C15.413 14.6337 15.6463 14.9962 15.9546 15.2554C16.263 15.5145 16.6613 15.6812 17.0072 15.7945C17.3688 15.9137 17.7563 15.9987 18.0988 16.0612C18.4523 16.1241 18.8081 16.1728 19.1655 16.207V18.347C19.036 18.1492 18.8792 17.9708 18.6997 17.817C18.3913 17.557 17.993 17.3904 17.6472 17.277C17.2897 17.1637 16.925 17.0746 16.5555 17.0104C16.1658 16.941 15.7732 16.889 15.3788 16.8545L15.2997 16.8479L15.278 16.8462H15.268C15.1361 16.8372 15.004 16.8596 14.8825 16.9117C14.7611 16.9638 14.6537 17.044 14.5694 17.1458C14.4851 17.2476 14.4261 17.3679 14.3975 17.497C14.3688 17.626 14.3713 17.76 14.4046 17.8879C14.4255 17.9679 14.563 18.5062 14.7896 19.1195C14.9096 19.447 15.0613 19.8112 15.2413 20.147C15.413 20.467 15.6463 20.8295 15.9546 21.0887C16.263 21.3479 16.6613 21.5145 17.0072 21.6279C17.3688 21.747 17.7563 21.8329 18.0988 21.8945C18.4523 21.9575 18.8081 22.0061 19.1655 22.0404M16.7097 13.5254C16.5932 13.3049 16.4911 13.0772 16.4038 12.8437C16.6571 12.8937 16.9071 12.9537 17.1271 13.0262C17.4055 13.1179 17.5638 13.2045 17.6288 13.2595C17.693 13.3137 17.8063 13.4537 17.9438 13.7104C18.0538 13.9154 18.1571 14.152 18.2505 14.3929C18.0057 14.3472 17.7641 14.286 17.5272 14.2095C17.2488 14.1187 17.0905 14.032 17.0255 13.977C16.9613 13.9229 16.848 13.7829 16.7097 13.5254ZM22.2705 15.7887C22.0505 15.8612 21.8005 15.922 21.5471 15.9712C21.6362 15.7381 21.7383 15.5103 21.853 15.2887C21.9913 15.032 22.1038 14.892 22.1696 14.8379C22.2338 14.7829 22.3921 14.6962 22.6696 14.6045C22.8905 14.532 23.1405 14.4712 23.393 14.422C23.3005 14.6637 23.1971 14.8995 23.0871 15.1037C22.9496 15.3612 22.8371 15.5012 22.7713 15.5554C22.7063 15.6104 22.5488 15.697 22.2705 15.7887ZM21.5471 21.8045C21.8005 21.7545 22.0505 21.6945 22.2705 21.622C22.5488 21.5304 22.7063 21.4437 22.7713 21.3887C22.8363 21.3345 22.9496 21.1945 23.088 20.937C23.1963 20.7329 23.3005 20.4962 23.393 20.2554C23.1405 20.3054 22.8905 20.3654 22.6705 20.4379C22.3921 20.5295 22.2338 20.6162 22.1688 20.6712C22.1038 20.7254 21.9913 20.8654 21.853 21.1229C21.7384 21.3442 21.6363 21.5718 21.5471 21.8045ZM16.4038 18.677C16.4971 18.9187 16.6005 19.1545 16.7097 19.3587C16.848 19.617 16.9613 19.7562 17.0263 19.8112C17.0913 19.8654 17.2488 19.9529 17.5263 20.0445C17.7471 20.1162 17.9971 20.1762 18.2505 20.2262C18.1629 19.9927 18.0605 19.765 17.9438 19.5445C17.8063 19.2862 17.6938 19.147 17.6288 19.0929C17.5638 19.0387 17.4055 18.9512 17.1271 18.8595C16.8902 18.7833 16.6486 18.7224 16.4038 18.677Z" fill="#645242"/>
<path d="M7.46446 28.7858C7.81196 29.1367 8.15696 29.4858 8.48113 29.9292V30.7567H13.3336V29.9292C13.252 29.285 13.1086 28.1242 13.0961 27.8017C13.0786 27.3483 12.4386 26.5208 12.4386 26.5208L10.4761 24.1642C10.4761 24.1642 9.9203 23.6058 9.60196 22.9858C9.28363 22.3658 8.6078 23.1458 8.5178 23.7033C8.4278 24.2617 8.59863 24.555 8.59863 24.555L9.7203 26.6775C9.7203 26.6775 8.4203 24.9817 8.01613 24.3C7.81196 23.955 7.75446 23.2233 7.69113 22.4067C7.62863 21.61 7.5603 20.7325 7.3428 20.05C6.90196 18.6667 5.62613 19.0133 5.4053 19.6308C5.18446 20.2492 4.9353 24.3325 5.0153 25.0125C5.07863 25.5458 5.4153 26.0675 5.79696 26.655C5.90307 26.8178 6.01002 26.9864 6.1178 27.1608C6.54446 27.8567 7.00696 28.3233 7.46446 28.7858ZM32.492 28.7858C32.9478 28.3233 33.4086 27.8567 33.8336 27.1608C33.9414 26.9864 34.0481 26.818 34.1536 26.6558C34.5336 26.0675 34.8703 25.5458 34.932 25.0125C35.012 24.3325 35.062 20.2492 34.842 19.6308C34.6211 19.0133 33.3503 18.6667 32.9111 20.05C32.6945 20.7325 32.6261 21.61 32.5645 22.4067C32.5003 23.2233 32.4436 23.955 32.2395 24.3C31.837 24.9817 30.5411 26.6775 30.5411 26.6775L31.6595 24.555C31.6595 24.555 31.8295 24.2617 31.7403 23.7042C31.6503 23.1458 30.9761 22.3658 30.6595 22.9858C30.3428 23.605 29.7886 24.1642 29.7886 24.1642L27.832 26.5217C27.832 26.5217 27.1945 27.3483 27.177 27.8017C27.1711 27.9533 27.077 28.29 26.9686 28.6708C26.8478 29.1008 26.7103 29.5875 26.667 29.9292V30.7567H31.4778V29.9292C31.8011 29.485 32.1453 29.1375 32.492 28.7858ZM26.667 34.09C26.667 34.311 26.7548 34.523 26.911 34.6792C27.0673 34.8355 27.2793 34.9233 27.5003 34.9233H30.8336C31.0546 34.9233 31.2666 34.8355 31.4229 34.6792C31.5792 34.523 31.667 34.311 31.667 34.09V32.4233C31.667 32.2023 31.5792 31.9903 31.4229 31.8341C31.2666 31.6778 31.0546 31.59 30.8336 31.59H27.5003C27.2793 31.59 27.0673 31.6778 26.911 31.8341C26.7548 31.9903 26.667 32.2023 26.667 32.4233V34.09ZM13.3336 34.09C13.3336 34.311 13.2458 34.523 13.0896 34.6792C12.9333 34.8355 12.7213 34.9233 12.5003 34.9233H9.16696C8.94595 34.9233 8.73399 34.8355 8.57771 34.6792C8.42143 34.523 8.33363 34.311 8.33363 34.09V32.4233C8.33363 32.2023 8.42143 31.9903 8.57771 31.8341C8.73399 31.6778 8.94595 31.59 9.16696 31.59H12.5003C12.7213 31.59 12.9333 31.6778 13.0896 31.8341C13.2458 31.9903 13.3336 32.2023 13.3336 32.4233V34.09Z" fill="#645242"/>
</svg>
